HIERARCHY
ROOT Root
{
  OFFSET 0.0 0.0 0.0
  CHANNELS 6 Xposition Yposition Zposition Zrotation Yrotation Xrotation
  JOINT Hips
  {
    OFFSET 0.0 100.0 0.0
    CHANNELS 6 Xposition Yposition Zposition Zrotation Yrotation Xrotation
    JOINT Spine1
    {
      OFFSET 5.003913 -0.037094 -0.013727
      CHANNELS 3 Zrotation Yrotation Xrotation
      JOINT Spine2
      {
        OFFSET 7.125363 -1e-06 0.0
        CHANNELS 3 Zrotation Yrotation Xrotation
        JOINT Chest
        {
          OFFSET 7.594027 1e-06 0.0
          CHANNELS 3 Zrotation Yrotation Xrotation
          JOINT Neck1
          {
            OFFSET 26.313086 -0.460272 -0.181672
            CHANNELS 3 Zrotation Yrotation Xrotation
            JOINT Neck2
            {
              OFFSET 8.045911 0.0 0.0
              CHANNELS 3 Zrotation Yrotation Xrotation
              JOINT Head
              {
                OFFSET 6.432774 0.0 0.0
                CHANNELS 3 Zrotation Yrotation Xrotation
                JOINT HeadEnd
                {
                  OFFSET 16.169773 0.06451 0.00362
                  CHANNELS 3 Zrotation Yrotation Xrotation
                }
                JOINT Jaw
                {
                  OFFSET 0.108741 3.12938 0.002639
                  CHANNELS 3 Zrotation Yrotation Xrotation
                }
                JOINT LeftEye
                {
                  OFFSET 4.45173 8.166359 3.206392
                  CHANNELS 3 Zrotation Yrotation Xrotation
                }
                JOINT RightEye
                {
                  OFFSET 4.436895 8.135758 -3.222429
                  CHANNELS 3 Zrotation Yrotation Xrotation
                }
              }
            }
          }
          JOINT LeftShoulder
          {
            OFFSET 23.218927 5.195579 1.621656
            CHANNELS 3 Zrotation Yrotation Xrotation
            JOINT LeftArm
            {
              OFFSET 15.902118 2e-06 -2e-06
              CHANNELS 3 Zrotation Yrotation Xrotation
              JOINT LeftForeArm
              {
                OFFSET 28.739307 0.0 -1e-06
                CHANNELS 3 Zrotation Yrotation Xrotation
                JOINT LeftHand
                {
                  OFFSET 27.093981 -4e-06 0.0
                  CHANNELS 3 Zrotation Yrotation Xrotation
                  JOINT LeftHandThumb1
                  {
                    OFFSET 2.276781 3.380274 0.83384
                    CHANNELS 3 Zrotation Yrotation Xrotation
                    JOINT LeftHandThumb2
                    {
                      OFFSET 4.705309 -1e-06 -1e-06
                      CHANNELS 3 Zrotation Yrotation Xrotation
                      JOINT LeftHandThumb3
                      {
                        OFFSET 2.798515 0.0 3e-06
                        CHANNELS 3 Zrotation Yrotation Xrotation
                        JOINT LeftHandThumbEnd
                        {
                          OFFSET 3.180793 4e-06 -4e-06
                          CHANNELS 3 Zrotation Yrotation Xrotation
                        }
                      }
                    }
                  }
                  JOINT LeftHandIndex1
                  {
                    OFFSET 3.247786 2.352677 0.137192
                    CHANNELS 3 Zrotation Yrotation Xrotation
                    JOINT LeftHandIndex2
                    {
                      OFFSET 6.367095 1e-06 0.0
                      CHANNELS 3 Zrotation Yrotation Xrotation
                      JOINT LeftHandIndex3
                      {
                        OFFSET 3.662364 0.0 0.0
                        CHANNELS 3 Zrotation Yrotation Xrotation
                        JOINT LeftHandIndex4
                        {
                          OFFSET 2.329242 4e-06 -4e-06
                          CHANNELS 3 Zrotation Yrotation Xrotation
                          JOINT LeftHandIndexEnd
                          {
                            OFFSET 2.767823 1e-06 0.0
                            CHANNELS 3 Zrotation Yrotation Xrotation
                          }
                        }
                      }
                    }
                  }
                  JOINT LeftHandMiddle1
                  {
                    OFFSET 3.163612 0.945023 -0.406112
                    CHANNELS 3 Zrotation Yrotation Xrotation
                    JOINT LeftHandMiddle2
                    {
                      OFFSET 6.276789 3e-06 0.0
                      CHANNELS 3 Zrotation Yrotation Xrotation
                      JOINT LeftHandMiddle3
                      {
                        OFFSET 4.35652 -1e-06 4e-06
                        CHANNELS 3 Zrotation Yrotation Xrotation
                        JOINT LeftHandMiddle4
                        {
                          OFFSET 2.996877 0.0 8e-06
                          CHANNELS 3 Zrotation Yrotation Xrotation
                          JOINT LeftHandMiddleEnd
                          {
                            OFFSET 2.323256 3e-06 -4e-06
                            CHANNELS 3 Zrotation Yrotation Xrotation
                          }
                        }
                      }
                    }
                  }
                  JOINT LeftHandRing1
                  {
                    OFFSET 2.882606 -0.309162 0.107445
                    CHANNELS 3 Zrotation Yrotation Xrotation
                    JOINT LeftHandRing2
                    {
                      OFFSET 6.033198 0.0 4e-06
                      CHANNELS 3 Zrotation Yrotation Xrotation
                      JOINT LeftHandRing3
                      {
                        OFFSET 4.350578 3e-06 0.0
                        CHANNELS 3 Zrotation Yrotation Xrotation
                        JOINT LeftHandRing4
                        {
                          OFFSET 2.651321 2e-06 -7e-06
                          CHANNELS 3 Zrotation Yrotation Xrotation
                          JOINT LeftHandRingEnd
                          {
                            OFFSET 1.937663 1e-06 -4e-06
                            CHANNELS 3 Zrotation Yrotation Xrotation
                          }
                        }
                      }
                    }
                  }
                  JOINT LeftHandPinky1
                  {
                    OFFSET 2.865315 -1.525436 0.575687
                    CHANNELS 3 Zrotation Yrotation Xrotation
                    JOINT LeftHandPinky2
                    {
                      OFFSET 5.54936 1e-06 -8e-06
                      CHANNELS 3 Zrotation Yrotation Xrotation
                      JOINT LeftHandPinky3
                      {
                        OFFSET 3.070974 0.0 -4e-06
                        CHANNELS 3 Zrotation Yrotation Xrotation
                        JOINT LeftHandPinky4
                        {
                          OFFSET 1.549672 1e-06 0.0
                          CHANNELS 3 Zrotation Yrotation Xrotation
                          JOINT LeftHandPinkyEnd
                          {
                            OFFSET 1.952123 0.0 0.0
                            CHANNELS 3 Zrotation Yrotation Xrotation
                          }
                        }
                      }
                    }
                  }
                }
              }
            }
          }
          JOINT RightShoulder
          {
            OFFSET 23.161716 5.296122 -1.380114
            CHANNELS 3 Zrotation Yrotation Xrotation
            JOINT RightArm
            {
              OFFSET -16.027195 -2e-06 1.1e-05
              CHANNELS 3 Zrotation Yrotation Xrotation
              JOINT RightForeArm
              {
                OFFSET -28.736639 4e-06 2e-06
                CHANNELS 3 Zrotation Yrotation Xrotation
                JOINT RightHand
                {
                  OFFSET -27.133619 6e-06 0.0
                  CHANNELS 3 Zrotation Yrotation Xrotation
                  JOINT RightHandThumb1
                  {
                    OFFSET -2.274328 -3.351035 -0.83067
                    CHANNELS 3 Zrotation Yrotation Xrotation
                    JOINT RightHandThumb2
                    {
                      OFFSET -4.703594 -3e-06 2e-06
                      CHANNELS 3 Zrotation Yrotation Xrotation
                      JOINT RightHandThumb3
                      {
                        OFFSET -2.794935 -4e-06 -3e-06
                        CHANNELS 3 Zrotation Yrotation Xrotation
                        JOINT RightHandThumbEnd
                        {
                          OFFSET -3.183852 4e-06 1e-06
                          CHANNELS 3 Zrotation Yrotation Xrotation
                        }
                      }
                    }
                  }
                  JOINT RightHandIndex1
                  {
                    OFFSET -3.253496 -2.33755 -0.127667
                    CHANNELS 3 Zrotation Yrotation Xrotation
                    JOINT RightHandIndex2
                    {
                      OFFSET -6.344434 0.0 0.0
                      CHANNELS 3 Zrotation Yrotation Xrotation
                      JOINT RightHandIndex3
                      {
                        OFFSET -3.654871 0.0 -8e-06
                        CHANNELS 3 Zrotation Yrotation Xrotation
                        JOINT RightHandIndex4
                        {
                          OFFSET -2.327586 -1e-06 0.0
                          CHANNELS 3 Zrotation Yrotation Xrotation
                          JOINT RightHandIndexEnd
                          {
                            OFFSET -2.770001 3e-06 8e-06
                            CHANNELS 3 Zrotation Yrotation Xrotation
                          }
                        }
                      }
                    }
                  }
                  JOINT RightHandMiddle1
                  {
                    OFFSET -3.168223 -0.944764 0.411762
                    CHANNELS 3 Zrotation Yrotation Xrotation
                    JOINT RightHandMiddle2
                    {
                      OFFSET -6.266691 -1e-06 -4e-06
                      CHANNELS 3 Zrotation Yrotation Xrotation
                      JOINT RightHandMiddle3
                      {
                        OFFSET -4.348901 0.0 0.0
                        CHANNELS 3 Zrotation Yrotation Xrotation
                        JOINT RightHandMiddle4
                        {
                          OFFSET -3.00024 2e-06 -4e-06
                          CHANNELS 3 Zrotation Yrotation Xrotation
                          JOINT RightHandMiddleEnd
                          {
                            OFFSET -2.321477 -4e-06 -4e-06
                            CHANNELS 3 Zrotation Yrotation Xrotation
                          }
                        }
                      }
                    }
                  }
                  JOINT RightHandRing1
                  {
                    OFFSET -2.885654 0.293261 -0.119232
                    CHANNELS 3 Zrotation Yrotation Xrotation
                    JOINT RightHandRing2
                    {
                      OFFSET -6.032835 -1e-06 -4e-06
                      CHANNELS 3 Zrotation Yrotation Xrotation
                      JOINT RightHandRing3
                      {
                        OFFSET -4.33881 0.0 -4e-06
                        CHANNELS 3 Zrotation Yrotation Xrotation
                        JOINT RightHandRing4
                        {
                          OFFSET -2.654903 -4e-06 -4e-06
                          CHANNELS 3 Zrotation Yrotation Xrotation
                          JOINT RightHandRingEnd
                          {
                            OFFSET -1.935122 0.0 4e-06
                            CHANNELS 3 Zrotation Yrotation Xrotation
                          }
                        }
                      }
                    }
                  }
                  JOINT RightHandPinky1
                  {
                    OFFSET -2.866241 1.503904 -0.60527
                    CHANNELS 3 Zrotation Yrotation Xrotation
                    JOINT RightHandPinky2
                    {
                      OFFSET -5.553177 -2e-06 0.0
                      CHANNELS 3 Zrotation Yrotation Xrotation
                      JOINT RightHandPinky3
                      {
                        OFFSET -3.062664 -1e-06 -4e-06
                        CHANNELS 3 Zrotation Yrotation Xrotation
                        JOINT RightHandPinky4
                        {
                          OFFSET -1.546529 2e-06 4e-06
                          CHANNELS 3 Zrotation Yrotation Xrotation
                          JOINT RightHandPinkyEnd
                          {
                            OFFSET -1.952341 0.0 -4e-06
                            CHANNELS 3 Zrotation Yrotation Xrotation
                          }
                        }
                      }
                    }
                  }
                }
              }
            }
          }
        }
      }
    }
    JOINT LeftLeg
    {
      OFFSET -8.443107 2.567604 10.043214
      CHANNELS 3 Zrotation Yrotation Xrotation
      JOINT LeftShin
      {
        OFFSET 43.229198 1e-06 -1e-06
        CHANNELS 3 Zrotation Yrotation Xrotation
        JOINT LeftFoot
        {
          OFFSET 42.298611 1e-06 1e-06
          CHANNELS 3 Zrotation Yrotation Xrotation
          JOINT LeftToeBase
          {
            OFFSET 14.165858 1e-06 0.0
            CHANNELS 3 Zrotation Yrotation Xrotation
            JOINT LeftToeEnd
            {
              OFFSET 6.7141 -0.234461 0.0
              CHANNELS 3 Zrotation Yrotation Xrotation
            }
          }
        }
      }
    }
    JOINT RightLeg
    {
      OFFSET -8.303923 2.592729 -10.047278
      CHANNELS 3 Zrotation Yrotation Xrotation
      JOINT RightShin
      {
        OFFSET -43.369682 0.0 1e-06
        CHANNELS 3 Zrotation Yrotation Xrotation
        JOINT RightFoot
        {
          OFFSET -42.260784 4e-06 2e-06
          CHANNELS 3 Zrotation Yrotation Xrotation
          JOINT RightToeBase
          {
            OFFSET -14.222245 -2e-06 -1e-06
            CHANNELS 3 Zrotation Yrotation Xrotation
            JOINT RightToeEnd
            {
              OFFSET -6.660062 0.232574 -2e-06
              CHANNELS 3 Zrotation Yrotation Xrotation
            }
          }
        }
      }
    }
  }
}
MOTION
Frames: 5
Frame Time: 0.03333333333333333
0.0 0.0 0.0 0.0 -0.0 0.0 0.016722 48.473736 0.471853 94.111633 -68.745018 86.201302 7.239254 -0.004926 0.317222 -6.643175 -0.258679 0.289038 15.348197 -0.813756 -2.137869 22.121223 0.456692 1.507801 -2.617221 -0.282454 1.520367 -24.449516 3.985763 0.961762 6e-06 0.0 -0.0 -0.222617 -0.166745 0.018628 -0.330174 -0.006392 6.2e-05 -0.378445 -0.327499 0.032898 -46.493443 -69.821808 49.631462 96.277809 -10.808945 -35.380051 7.872411 -0.456953 0.074609 61.655571 72.699265 54.621643 17.636631 -26.322739 52.411201 -19.466658 -14.3956 29.410395 -1e-06 -8.774822 -2e-06 15.422931 -18.087967 6.32736 -0.609777 -1.795655 -3.889328 -4.807091 -11.046812 -2.93785 3e-06 -20.976019 2e-06 -5.019971 -25.03356 -4.031882 5e-06 -0.0 0.0 -10.634537 -5.686972 -3.565588 10.573274 -17.922955 -3.113897 2e-06 -13.821211 1e-06 -0.501778 -31.181511 -4.027016 -10.221192 -58.299942 6.632884 -13.982718 -7.1502 -2.875041 13.772731 -8.401492 -3.218241 0.347732 -34.211555 0.771655 -0.96303 -17.73337 2.621021 0.0 -0.0 -0.0 -17.346422 -20.095219 -4.201782 21.757561 -1.638377 3.866428 1e-06 -6.338824 1e-06 -1.697589 -22.591743 -6.194006 -0.0 -6e-06 -1e-06 135.134811 -65.759377 47.732048 99.138588 -9.30662 -23.458757 7.771906 -0.877872 -0.02856 42.261375 73.628021 37.791161 22.182121 -20.375891 49.9333 -16.701811 -16.743525 28.476519 -4e-06 -12.690601 -2e-06 16.394169 -17.431776 2.670829 -0.10592 -1.513859 -4.275881 -5.03904 -5.61287 -2.953556 4e-06 -11.020525 -1e-06 -6.111296 -15.895332 -3.840469 -0.0 0.0 -0.0 -10.283369 -5.680289 -4.341837 11.028293 -11.302404 -2.372631 -1.384269 -14.238579 -6.320119 -0.625439 -26.924189 -3.8276 -4.249283 -49.509556 -3.784951 -13.708524 -7.363477 -3.72094 18.141148 -14.052739 -3.242672 6e-06 -18.787275 -2e-06 -0.429711 -8.456044 2.555504 -0.0 1e-06 0.0 -15.923532 -20.094484 -5.473583 30.419205 -7.190825 1.735929 3e-06 -8.162925 -1e-06 -1.861901 -22.861469 -6.167942 0.0 -3e-06 -1e-06 107.650337 -3.349204 5.240541 117.332886 -0.183286 0.179634 -104.069016 4.408432 2.055551 -26.57526 1.675838 1.383472 -0.999996 0.0 -0.0 -71.806358 -9.022782 0.150563 114.22142 -0.569323 0.109353 -87.332764 9.921977 -11.213261 -17.223349 0.732106 1.898532 -1.000001 -0.0 -1e-06 
0.0 0.0 0.0 0.0 -0.0 0.0 0.004019 48.477642 0.502523 94.031075 -68.793861 86.313728 7.252764 -0.011678 0.332711 -6.660709 -0.27685 0.284213 15.319893 -0.758808 -2.151923 22.123413 0.493083 1.505927 -2.616737 -0.282261 1.48087 -24.494387 3.975904 0.981453 7e-06 -0.0 -0.0 -0.225812 -0.174626 0.018517 -0.335122 -0.024759 0.004306 -0.382381 -0.325444 0.028536 -46.393463 -69.775375 49.534683 96.319473 -10.845661 -35.320801 7.91187 -0.419818 0.064717 62.06184 72.794441 55.206512 17.636629 -26.322737 52.411201 -19.466661 -14.395602 29.410393 -3e-06 -8.774822 -1e-06 15.410892 -18.059601 6.350744 -0.609776 -1.795653 -3.889328 -4.807088 -11.046812 -2.937851 5e-06 -20.976019 1e-06 -5.019969 -25.033558 -4.031882 6e-06 -0.0 0.0 -10.634534 -5.686971 -3.565588 10.573275 -17.922955 -3.113901 3e-06 -13.821209 1e-06 -0.501777 -31.181505 -4.027016 -10.240067 -58.313881 6.638439 -13.982716 -7.150198 -2.875042 13.772731 -8.401493 -3.218242 0.347733 -34.211555 0.771656 -0.963028 -17.73337 2.621021 -0.0 -1e-06 -0.0 -17.34642 -20.095221 -4.201781 21.757561 -1.638377 3.866428 2e-06 -6.338822 1e-06 -1.697589 -22.591747 -6.194008 -1e-06 -5e-06 -3e-06 135.024292 -65.718826 47.839878 99.162056 -9.268624 -23.442991 7.781457 -0.903528 -0.024662 42.170666 73.657036 37.680611 22.182121 -20.375898 49.933327 -16.701817 -16.743528 28.476534 -2e-06 -12.690603 -1e-06 16.432529 -17.4608 2.656193 -0.105919 -1.513857 -4.275882 -5.039041 -5.612873 -2.953557 5e-06 -11.020525 -2e-06 -6.111298 -15.895334 -3.84047 0.0 -0.0 -0.0 -10.283372 -5.680287 -4.34184 11.028296 -11.302406 -2.372633 -1.384268 -14.238581 -6.320122 -0.625437 -26.924189 -3.827603 -4.268726 -49.546188 -3.780776 -13.708526 -7.363475 -3.720941 18.141151 -14.052735 -3.242675 6e-06 -18.78727 -2e-06 -0.429711 -8.456041 2.555504 0.0 1e-06 -0.0 -15.923536 -20.094482 -5.473586 30.419218 -7.190829 1.735926 3e-06 -8.162925 -0.0 -1.861901 -22.861469 -6.167942 -1e-06 -3e-06 -1e-06 107.615448 -3.329244 5.302958 117.28566 -0.14348 0.194889 -103.995033 4.425212 2.128144 -26.684275 1.670375 1.385229 -0.999997 0.0 -1e-06 -71.826744 -9.043938 0.098841 114.181625 -0.581269 0.104222 -87.250153 9.926486 -11.270007 -17.197914 0.738408 1.894409 -1.000001 -0.0 0.0 
0.0 0.0 0.0 0.0 -0.0 0.0 -0.002892 48.470226 0.539538 93.985695 -68.846008 86.3964 7.254954 -0.003496 0.343349 -6.68092 -0.296811 0.27259 15.283861 -0.737118 -2.14812 22.123903 0.526218 1.509487 -2.621113 -0.281391 1.428409 -24.481533 3.947179 0.975413 6e-06 0.0 -0.0 -0.230563 -0.176914 0.017246 -0.343833 -0.031158 0.005837 -0.38992 -0.3235 0.024339 -46.310638 -69.759727 49.4347 96.349594 -10.881094 -35.235294 7.914561 -0.396869 0.056308 62.250168 72.839432 55.468697 17.636629 -26.322731 52.41119 -19.46666 -14.395597 29.410389 -0.0 -8.774821 -2e-06 15.371259 -18.04549 6.356308 -0.609777 -1.795655 -3.889327 -4.807088 -11.046807 -2.93785 4e-06 -20.976013 -1e-06 -5.019969 -25.033556 -4.031883 6e-06 1e-06 2e-06 -10.634534 -5.686969 -3.565587 10.573272 -17.922951 -3.113901 2e-06 -13.82121 0.0 -0.501777 -31.181505 -4.027019 -10.232482 -58.277496 6.594357 -13.982714 -7.150198 -2.875041 13.772727 -8.401491 -3.218242 0.347733 -34.211544 0.771653 -0.96303 -17.733368 2.621019 -0.0 0.0 -0.0 -17.346416 -20.095217 -4.201784 21.757557 -1.638375 3.866427 1e-06 -6.338824 0.0 -1.697589 -22.591742 -6.194005 -1e-06 -7e-06 -3e-06 134.925613 -65.692513 47.965801 99.19207 -9.222339 -23.456984 7.744949 -0.891657 -0.018419 42.131748 73.646263 37.619816 22.182117 -20.375895 49.933323 -16.701817 -16.74353 28.476532 -2e-06 -12.690603 -0.0 16.439558 -17.487114 2.661617 -0.105919 -1.513857 -4.275882 -5.039042 -5.612874 -2.953557 4e-06 -11.020528 -2e-06 -6.1113 -15.895338 -3.840472 -0.0 0.0 0.0 -10.283373 -5.68029 -4.341839 11.028296 -11.302407 -2.372633 -1.384268 -14.238583 -6.320121 -0.625437 -26.924192 -3.827603 -4.287021 -49.578445 -3.765324 -13.708527 -7.363478 -3.720941 18.141151 -14.052738 -3.242674 6e-06 -18.787275 -2e-06 -0.429712 -8.456045 2.555504 0.0 1e-06 -0.0 -15.923538 -20.094484 -5.473587 30.419218 -7.190826 1.735927 3e-06 -8.162927 -1e-06 -1.861903 -22.861481 -6.167944 0.0 -4e-06 -1e-06 107.571899 -3.31481 5.320403 117.239311 -0.111142 0.202616 -103.854935 4.446288 2.182067 -26.713093 1.66657 1.389248 -0.999997 0.0 -0.0 -71.847961 -9.077681 0.067419 114.135307 -0.586114 0.10217 -87.07534 9.959848 -11.300504 -17.148787 0.739603 1.893198 -1.000001 0.0 -0.0 
0.0 0.0 0.0 0.0 -0.0 0.0 0.001121 48.450878 0.571023 93.979233 -68.894699 86.441689 7.246479 0.014671 0.351585 -6.69081 -0.297292 0.261336 15.250194 -0.771382 -2.136825 22.110685 0.58008 1.51523 -2.621933 -0.292074 1.393934 -24.412195 3.895168 0.951921 6e-06 0.0 -0.0 -0.232015 -0.17341 0.015381 -0.349424 -0.024701 0.005219 -0.39268 -0.322386 0.020591 -46.216969 -69.778206 49.29108 96.357025 -10.921221 -35.15543 7.90141 -0.380983 0.054131 62.151558 72.86026 55.285385 17.636637 -26.322733 52.411186 -19.466661 -14.395596 29.410389 -0.0 -8.774822 -3e-06 15.320161 -18.047014 6.333505 -0.609777 -1.795654 -3.889327 -4.80709 -11.046814 -2.937849 2e-06 -20.976021 1e-06 -5.019971 -25.033562 -4.031882 6e-06 1e-06 0.0 -10.634535 -5.686972 -3.565588 10.573271 -17.922955 -3.113898 2e-06 -13.821211 0.0 -0.501779 -31.181505 -4.027017 -10.203486 -58.201424 6.520867 -13.982715 -7.1502 -2.875042 13.77273 -8.401493 -3.21824 0.347731 -34.211559 0.771655 -0.96303 -17.73337 2.621019 0.0 0.0 -0.0 -17.346424 -20.095221 -4.20178 21.757561 -1.638372 3.866429 1e-06 -6.338824 1e-06 -1.697591 -22.591751 -6.194006 -1e-06 -5e-06 -1e-06 134.789917 -65.678101 48.175011 99.223495 -9.149336 -23.476946 7.705034 -0.848386 -0.014017 42.247723 73.63707 37.685059 22.182116 -20.375898 49.933327 -16.701817 -16.74353 28.476532 -2e-06 -12.690603 -1e-06 16.421526 -17.48666 2.668374 -0.105919 -1.513854 -4.275882 -5.039042 -5.612873 -2.953557 4e-06 -11.020526 -3e-06 -6.111299 -15.895332 -3.84047 -0.0 -0.0 -0.0 -10.283371 -5.680288 -4.341839 11.028296 -11.302406 -2.372634 -1.384268 -14.23858 -6.320122 -0.625438 -26.924191 -3.827601 -4.30191 -49.589493 -3.740888 -13.708526 -7.363477 -3.72094 18.14115 -14.052738 -3.242674 6e-06 -18.787275 -2e-06 -0.429711 -8.45604 2.555504 0.0 1e-06 -0.0 -15.923536 -20.094482 -5.473586 30.41921 -7.190824 1.735925 4e-06 -8.162925 -1e-06 -1.861903 -22.861469 -6.167942 1e-06 -4e-06 -1e-06 107.564201 -3.357745 5.378271 117.21241 -0.094469 0.196766 -103.924896 4.539298 2.084337 -26.662317 1.666088 1.383115 -0.999996 0.0 1e-06 -71.866219 -9.104556 0.044229 114.094749 -0.582142 0.10126 -86.837326 9.977647 -11.294168 -17.064112 0.736501 1.895195 -1.000001 -0.0 -0.0 
0.0 0.0 0.0 0.0 -0.0 0.0 0.005461 48.433937 0.596387 94.017311 -68.919334 86.442909 7.244536 0.03239 0.352477 -6.68552 -0.28315 0.250341 15.219123 -0.84428 -2.122474 22.072149 0.667295 1.520881 -2.623852 -0.327677 1.381873 -24.297373 3.822428 0.947966 5e-06 0.0 -0.0 -0.23077 -0.170771 0.014231 -0.341732 -0.017566 0.007208 -0.383979 -0.32341 0.015557 -46.117226 -69.826912 49.109226 96.341377 -10.979149 -35.146671 7.882184 -0.371286 0.056484 61.933231 72.849655 54.874756 17.636646 -26.322737 52.411213 -19.466665 -14.3956 29.410395 -1e-06 -8.774823 -3e-06 15.247359 -18.066534 6.316999 -0.609776 -1.795655 -3.889328 -4.80709 -11.046814 -2.937851 5e-06 -20.976021 -1e-06 -5.01997 -25.033562 -4.031882 5e-06 1e-06 0.0 -10.634537 -5.686973 -3.565589 10.573276 -17.922958 -3.113899 3e-06 -13.821213 1e-06 -0.501777 -31.181511 -4.027018 -10.189573 -58.114262 6.451087 -13.982718 -7.1502 -2.875044 13.772733 -8.401497 -3.218241 0.347735 -34.211559 0.771654 -0.963027 -17.733374 2.621021 -0.0 -0.0 -1e-06 -17.346424 -20.095222 -4.201783 21.757566 -1.638379 3.866429 1e-06 -6.338825 1e-06 -1.697589 -22.591751 -6.194008 -1e-06 -7e-06 -1e-06 134.623993 -65.668442 48.413582 99.288254 -9.06856 -23.437941 7.622432 -0.797257 -0.014792 42.311516 73.693863 37.663948 22.182116 -20.3759 49.933323 -16.701818 -16.743528 28.476536 -2e-06 -12.690601 -0.0 16.356829 -17.474037 2.675172 -0.105919 -1.513857 -4.275882 -5.039042 -5.612873 -2.953557 4e-06 -11.020525 -1e-06 -6.111298 -15.895338 -3.840472 0.0 -1e-06 1e-06 -10.283371 -5.680292 -4.341839 11.028296 -11.302407 -2.372633 -1.384269 -14.238583 -6.320121 -0.625439 -26.924196 -3.827603 -4.324257 -49.577347 -3.713765 -13.708526 -7.363477 -3.72094 18.141153 -14.052742 -3.242676 5e-06 -18.787275 -2e-06 -0.429712 -8.456046 2.555504 -0.0 1e-06 0.0 -15.923538 -20.09449 -5.473585 30.419218 -7.190826 1.735926 2e-06 -8.162929 -1e-06 -1.861903 -22.861479 -6.167943 -1e-06 -4e-06 -1e-06 107.574905 -3.338253 5.340941 117.197075 -0.103962 0.182374 -103.977081 4.565113 2.003355 -26.567207 1.665259 1.373636 -0.999997 0.0 -0.0 -71.860306 -9.128436 0.045627 114.063515 -0.57155 0.096655 -86.667419 10.008698 -11.311967 -16.955898 0.734107 1.893492 -1.000003 0.0 0.0 
